<svg width="20" height="14" viewBox="0 0 20 14" fill="none" xmlns="http://www.w3.org/2000/svg">
<g clip-path="url(#clip0_9449_6208)">
<path d="M17.3547 0.391208C16.3891 0.0963768 15.3755 -0.00345223 14.3716 0.0974187C13.3809 0.195669 12.4195 0.492052 11.5433 0.969309C11.4027 1.04967 11.2727 1.14758 11.1563 1.26073L11.1024 1.3247L11.0813 1.31048C9.98701 0.523755 8.69199 0.0712977 7.35041 0.00698259C6.00882 -0.0573326 4.67721 0.269204 3.5141 0.947714C2.35099 1.62622 1.4054 2.62812 0.789896 3.83412C0.174395 5.04012 -0.0850797 6.39941 0.0423652 7.75015C0.238665 9.55746 1.13178 11.2139 2.52829 12.3607C3.22308 12.956 4.02816 13.4056 4.89664 13.6834C5.76512 13.9612 6.67964 14.0617 7.58693 13.979C8.52794 13.8901 9.4414 13.6097 10.2722 13.1545C10.9974 12.7566 11.6482 12.2338 12.1953 11.6097C12.329 11.4604 12.4532 11.3064 12.5729 11.1477L20.0002 1.80092C19.2165 1.16323 18.3182 0.684545 17.3547 0.391208Z" fill="#E42E2C"/>
<g opacity="0.3">
<path d="M2.40168 12.249L3.10524 11.3605L3.77363 10.5194L10.7155 1.7721L10.7319 1.75077C10.8447 1.6001 10.9661 1.45612 11.0954 1.31957H11.0813C9.98769 0.533582 8.69364 0.0814156 7.35303 0.0168274C6.01242 -0.0477607 4.68165 0.277947 3.51895 0.955224C2.35624 1.6325 1.41052 2.63285 0.794214 3.83735C0.177913 5.04184 -0.0830372 6.39979 0.0423904 7.74976C0.231207 9.49952 1.0753 11.1101 2.40168 12.2514V12.249Z" fill="url(#paint0_linear_9449_6208)"/>
</g>
</g>
<defs>
<linearGradient id="paint0_linear_9449_6208" x1="7.18826" y1="7.11479" x2="2.72371" y2="3.82959" gradientUnits="userSpaceOnUse">
<stop/>
<stop offset="1" stop-opacity="0"/>
</linearGradient>
<clipPath id="clip0_9449_6208">
<rect width="20" height="14" fill="white"/>
</clipPath>
</defs>
</svg>
