<svg width="16" height="19" viewBox="0 0 16 19" fill="none" xmlns="http://www.w3.org/2000/svg">
<path d="M8.07476 4.38461C8.94472 4.38461 10.0352 3.80483 10.6847 3.03179C11.2728 2.33121 11.7017 1.35283 11.7017 0.374444C11.7017 0.241577 11.6894 0.108709 11.6649 0C10.6969 0.0362365 9.53287 0.640178 8.83444 1.44946C8.28306 2.06548 7.78068 3.03179 7.78068 4.02225C7.78068 4.1672 7.80519 4.31214 7.81744 4.36046C7.87871 4.37254 7.97673 4.38461 8.07476 4.38461ZM5.0115 19C6.20004 19 6.72692 18.2149 8.20954 18.2149C9.71666 18.2149 10.0475 18.9758 11.3708 18.9758C12.6696 18.9758 13.5396 17.7921 14.3606 16.6325C15.2795 15.3039 15.6594 13.9994 15.6839 13.939C15.5981 13.9148 13.1108 12.9123 13.1108 10.0979C13.1108 7.65798 15.0712 6.5588 15.1815 6.47425C13.8827 4.63827 11.91 4.58996 11.3708 4.58996C9.91271 4.58996 8.72417 5.45963 7.97673 5.45963C7.16803 5.45963 6.10202 4.63827 4.83995 4.63827C2.43836 4.63827 0 6.59504 0 10.2912C0 12.5861 0.906725 15.014 2.02175 16.5842C2.97749 17.9129 3.8107 19 5.0115 19Z" fill="white"/>
</svg>
