<svg xmlns="http://www.w3.org/2000/svg" width="282" height="73" viewBox="0 0 282 73" role="img" aria-labelledby="title desc">
  <title id="title">Kompas.id</title>
  <desc id="desc">Logo Kompas.id untuk modal autentikasi</desc>
  <defs>
    <linearGradient id="gold" x1="217" y1="15" x2="276" y2="60" gradientUnits="userSpaceOnUse">
      <stop offset="0" stop-color="#f6dc57"/>
      <stop offset="0.52" stop-color="#e8c331"/>
      <stop offset="1" stop-color="#caa12c"/>
    </linearGradient>
  </defs>
  <g fill="#00559a">
    <path d="M5.7 58.3 14.8 7.2h11.1l-4.2 23.6L47.6 7.2h13.7L31.8 33l22.5 25.3H40.7L20.4 35.1l-4.1 23.2H5.7Z"/>
    <path d="M79.8 59.3c-5.5 0-10-1.5-13.4-4.6-3.4-3.1-5.1-7.4-5.1-12.8 0-6.4 2.2-11.8 6.6-16.1 4.4-4.3 9.9-6.4 16.5-6.4 5.5 0 9.9 1.5 13.3 4.6 3.4 3.1 5.1 7.4 5.1 12.8 0 6.4-2.2 11.8-6.5 16.1-4.4 4.3-9.9 6.4-16.5 6.4Zm1.1-8.5c3.2 0 5.9-1.4 8-4.3 2.1-2.9 3.1-6.2 3.1-10.1 0-2.6-.7-4.7-2.1-6.2-1.4-1.5-3.4-2.3-6-2.3-3.2 0-5.9 1.4-8 4.2-2.1 2.8-3.2 6.2-3.2 10.1 0 2.6.7 4.7 2.1 6.2 1.4 1.6 3.4 2.4 6.1 2.4Z"/>
    <path d="M105.5 58.3 112 20.4h9.7l-.8 4.7c3-3.8 6.8-5.7 11.3-5.7 5 0 8.1 2.1 9.5 6.4 3.3-4.3 7.5-6.4 12.6-6.4 3.7 0 6.5 1 8.4 3.1 1.9 2.1 2.5 5.1 1.8 9l-4.7 26.8h-10.1l4.3-24.6c.7-4.1-.8-6.2-4.5-6.2-2.3 0-4.3.9-6 2.7-1.7 1.8-2.8 4.1-3.3 6.9l-3.8 21.2h-10.1l4.3-24.6c.7-4.1-.8-6.2-4.5-6.2-2.3 0-4.3.9-6 2.7-1.7 1.8-2.8 4.1-3.3 6.9l-3.8 21.2h-10.1Z"/>
    <path d="M166.4 72.1 175.5 20.4h9.7l-.7 4.1c3-3.4 6.7-5.1 11-5.1 4.7 0 8.5 1.5 11.3 4.6 2.8 3.1 4.2 7.1 4.2 12.1 0 6.6-2 12.1-6.1 16.5-4.1 4.5-9 6.7-14.8 6.7-4.7 0-8.3-1.7-10.8-5.1l-3.2 17.9h-9.7Zm22.5-21.2c3.3 0 6-1.4 8.1-4.2 2.1-2.8 3.2-6.2 3.2-10.2 0-2.6-.7-4.7-2.1-6.2-1.4-1.5-3.3-2.3-5.7-2.3-3.1 0-5.8 1.4-8 4.2-2.2 2.8-3.3 6.2-3.3 10.1 0 2.6.7 4.7 2.1 6.2 1.4 1.6 3.3 2.4 5.7 2.4Z"/>
    <path d="M226.8 59.1c-4 0-7.2-1-9.6-3-2.4-2-3.6-4.7-3.6-8.1 0-4.1 1.6-7.3 4.9-9.7 3.3-2.4 7.8-3.6 13.4-3.6h8.5l.2-1.1c.4-2.1.1-3.7-.9-4.8-1-1.1-2.8-1.7-5.3-1.7-4.1 0-8.2 1.3-12.4 4l-2.7-7.1c5.1-3.1 10.7-4.7 16.8-4.7 5.5 0 9.4 1.3 11.9 3.8 2.5 2.5 3.3 6 2.5 10.5l-4.4 24.6h-9.4l.7-4c-2.6 3.2-6.2 4.9-10.6 4.9Zm3.2-7.4c2.4 0 4.5-.8 6.2-2.3 1.7-1.5 2.8-3.5 3.2-5.9l.3-1.9h-7.2c-5.6 0-8.4 1.8-8.4 5.3 0 1.5.5 2.6 1.5 3.5 1 .9 2.5 1.3 4.4 1.3Z"/>
    <path d="M266.4 59.1c-6.6 0-12.1-1.5-16.5-4.6l4-7.3c4 2.9 8.2 4.3 12.6 4.3 2.1 0 3.8-.4 5-1.2 1.2-.8 1.8-1.9 1.8-3.2 0-1.1-.5-2-1.6-2.7-1.1-.7-3-1.5-5.8-2.3-4.3-1.2-7.3-2.6-9-4.2-1.7-1.7-2.6-3.8-2.6-6.4 0-3.7 1.5-6.6 4.6-8.8 3.1-2.2 7.1-3.3 12.1-3.3 5.5 0 10.3 1.3 14.4 3.8l-3.9 7.2c-3.5-2.3-7.1-3.4-10.7-3.4-2 0-3.5.4-4.7 1.1-1.2.7-1.8 1.7-1.8 2.9 0 1.1.5 1.9 1.6 2.5 1.1.6 3 1.3 5.7 2.1 4.2 1.2 7.2 2.7 9 4.5 1.8 1.8 2.7 4.1 2.7 6.8 0 3.8-1.5 6.8-4.6 9.1-3 2.1-7.2 3.1-12.3 3.1Z"/>
  </g>
  <circle cx="226" cy="53" r="5.5" fill="#00559a"/>
  <path d="M237 20.5 259 8l22 12.5v25L259 58l-22-12.5v-25Z" fill="url(#gold)"/>
  <path d="M246 45V27h4.8v18H246Zm2.4-20.7c-.8 0-1.5-.3-2.1-.8-.6-.5-.9-1.2-.9-2s.3-1.5.9-2c.6-.5 1.3-.8 2.1-.8.9 0 1.6.3 2.2.8.6.5.9 1.2.9 2s-.3 1.5-.9 2c-.6.5-1.3.8-2.2.8Zm14 21.1c-2.3 0-4.2-.8-5.6-2.5-1.4-1.7-2.1-3.9-2.1-6.7s.7-5 2.2-6.7c1.5-1.7 3.4-2.6 5.7-2.6 2 0 3.6.7 4.8 2.1V19h4.8v26h-4.6v-2.3c-1.2 2.1-2.9 3.2-5.2 3.2Zm1.1-4.1c1.2 0 2.2-.5 3-1.5.8-1 1.2-2.2 1.2-3.7s-.4-2.8-1.2-3.8c-.8-1-1.8-1.5-3-1.5s-2.2.5-3 1.5c-.8 1-1.1 2.2-1.1 3.8 0 1.5.4 2.8 1.1 3.7.8 1 1.8 1.5 3 1.5Z" fill="#00559a"/>
  <text x="49" y="70" fill="#00559a" font-family="Georgia, serif" font-size="7" font-weight="700" letter-spacing="1.4">AMANAT HATI NURANI RAKYAT</text>
</svg>
